<?xml version="1.0" encoding="utf-8"?>
<!-- Generator: Adobe Illustrator 27.1.1, SVG Export Plug-In . SVG Version: 6.00 Build 0)  -->
<svg version="1.1" id="Layer_1" xmlns="http://www.w3.org/2000/svg" xmlns:xlink="http://www.w3.org/1999/xlink" x="0px" y="0px"
	 viewBox="0 0 612 148.5" style="enable-background:new 0 0 612 148.5;" xml:space="preserve">
<style type="text/css">
	.st0{fill:#FFFFFF;}
	.st1{fill:#ED233E;}
	.st2{fill:#F4CB16;}
	.st3{fill:#00B2D6;}
</style>
<g>
	<g>
		<path class="st0" d="M208.5,139H8.6l42.3-40.8l0-82.8h157.6V139z M35.4,128.2h162.3v-102h-136l0,76.6L35.4,128.2z"/>
	</g>
	
		<rect x="77" y="69.2" transform="matrix(-1 -1.224647e-16 1.224647e-16 -1 207.4216 143.8827)" class="st1" width="53.4" height="5.4"/>
	
		<rect x="76.7" y="54.6" transform="matrix(-1 -1.224647e-16 1.224647e-16 -1 251.8789 114.7004)" class="st2" width="98.5" height="5.4"/>
	
		<rect x="76.7" y="82.7" transform="matrix(-1 -1.224647e-16 1.224647e-16 -1 188.176 170.8535)" class="st2" width="34.8" height="5.4"/>
	
		<rect x="76.7" y="40.1" transform="matrix(-1 -1.224647e-16 1.224647e-16 -1 238.1346 85.5181)" class="st1" width="84.8" height="5.4"/>
	
		<rect x="170.6" y="40.1" transform="matrix(-1 -1.224647e-16 1.224647e-16 -1 357.3938 85.5181)" class="st2" width="16.1" height="5.4"/>
	
		<rect x="119.1" y="82.7" transform="matrix(-1 -1.224647e-16 1.224647e-16 -1 276.6274 170.8535)" class="st3" width="38.5" height="5.4"/>
	
		<rect x="136.5" y="69.2" transform="matrix(-1 -1.224647e-16 1.224647e-16 -1 291.7057 143.8868)" class="st3" width="18.7" height="5.4"/>
	<g>
		<path class="st0" d="M288.9,35.9c-1.4-2.5-3.5-4.4-6.3-5.8c-2.8-1.4-6.2-2.1-10.1-2.1h-20.5v49.4h13.7V60.7h6.8
			c4,0,7.4-0.7,10.2-2.2c2.8-1.5,4.9-3.4,6.3-5.9c1.4-2.5,2.1-5.2,2.1-8.2C291,41.2,290.3,38.4,288.9,35.9z M271.1,49.8h-5.5V39h5.5
			c3.9,0,5.8,1.8,5.8,5.4C276.9,48,275,49.8,271.1,49.8z"/>
	</g>
	<g>
		<path class="st0" d="M325.7,58.1c3.6-1.1,6.3-2.9,8.1-5.4c1.9-2.6,2.8-5.5,2.8-8.9c0-3-0.7-5.7-2.1-8.1c-1.4-2.4-3.5-4.3-6.2-5.7
			c-2.8-1.4-6.1-2.1-10.1-2.1h-21.7v49.4h13.7V59.2h1.5l9.8,18.2h15.4L325.7,58.1z M321.3,48.4c-0.9,0.9-2.3,1.3-4.2,1.3h-6.8V39.5
			h6.8c1.8,0,3.2,0.5,4.2,1.4c1,0.9,1.4,2.2,1.4,3.7C322.7,46.3,322.2,47.6,321.3,48.4z"/>
	</g>
	<g>
		<path class="st0" d="M388.5,39.4c-2.2-3.9-5.3-6.9-9.1-9c-3.9-2.1-8.1-3.2-12.8-3.2c-4.6,0-8.9,1.1-12.8,3.2c-3.9,2.1-7,5.2-9.2,9
			c-2.3,3.9-3.4,8.2-3.4,13.1c0,4.9,1.1,9.2,3.4,13.1c2.3,3.9,5.3,6.9,9.2,9c1.4,0.8,2.9,1.5,4.5,2c2.6,0.9,5.4,1.3,8.3,1.3
			c2.9,0,5.7-0.4,8.3-1.3c1.5-0.5,3-1.2,4.5-2c3.9-2.2,6.9-5.2,9.2-9c2.2-3.9,3.4-8.2,3.4-13.1C391.9,47.7,390.7,43.3,388.5,39.4z
			 M374.9,61.7c-2,2.3-4.8,3.4-8.3,3.4c-3.6,0-6.3-1.1-8.4-3.4c-2-2.3-3-5.3-3-9.2c0-3.9,1-7,3-9.3c2-2.3,4.8-3.4,8.4-3.4
			c3.5,0,6.3,1.1,8.3,3.4c2,2.3,3.1,5.4,3.1,9.3C377.9,56.3,376.9,59.4,374.9,61.7z"/>
	</g>
	<g>
		<path class="st0" d="M551.6,38.2v-11h-31.6v49.4h31.6v-11h-17.9v-8.9h15.8V46.3h-15.8v-8.1H551.6z"/>
	</g>
	<g>
		<path class="st0" d="M600,55.5c-1.7-2.2-4-3.7-6.9-4.3c2.5-0.7,4.5-2,6.1-4c1.5-1.9,2.3-4.4,2.3-7.3c0-4.1-1.4-7.2-4.3-9.5
			c-2.9-2.3-6.8-3.4-11.9-3.4h-23.7v49.4H586c5.2,0,9.3-1.2,12.2-3.6c2.9-2.4,4.4-5.7,4.4-9.9C602.5,60.3,601.7,57.8,600,55.5z
			 M575.2,38.1h6.9c3.5,0,5.2,1.5,5.2,4.4c0,2.8-1.7,4.3-5.2,4.3h-6.9V38.1z M583.2,65.5h-8v-9h7.9c1.7,0,3,0.4,3.9,1.2
			c0.9,0.8,1.4,1.9,1.4,3.4C588.4,64.1,586.7,65.5,583.2,65.5z"/>
	</g>
	<g>
		<polygon class="st1" points="453.8,27 424.1,76.6 424.1,76.7 424,76.6 394.3,27 410.3,27 424.1,50 437.8,27 		"/>
	</g>
	<g>
		<g>
			<polygon class="st2" points="513.4,27 483.7,76.6 483.7,76.7 483.7,76.6 453.9,27 469.9,27 483.7,50 497.4,27 			"/>
		</g>
	</g>
	<g>
		<g>
			<path class="st0" d="M265.9,105.7c-0.6-0.8-1.4-1.4-2.3-1.8c-0.9-0.4-2-0.8-3.4-1.2c-1.1-0.3-1.9-0.6-2.5-0.8
				c-0.6-0.2-1.1-0.6-1.5-1c-0.4-0.4-0.6-0.9-0.6-1.6c0-1,0.3-1.7,0.9-2.2c0.6-0.5,1.4-0.8,2.5-0.8c1.1,0,2,0.3,2.7,0.8
				c0.7,0.6,1.1,1.2,1.1,2h3.9c-0.1-1.8-0.9-3.2-2.2-4.2c-1.3-1-3-1.6-5.1-1.6c-1.4,0-2.7,0.2-3.8,0.7c-1.1,0.5-2,1.2-2.6,2.1
				c-0.6,0.9-0.9,2-0.9,3.2c0,1.3,0.3,2.4,0.9,3.2c0.6,0.8,1.4,1.4,2.2,1.8c0.9,0.4,2,0.8,3.4,1.1c1.1,0.3,2,0.6,2.6,0.8
				c0.6,0.2,1.1,0.6,1.6,1c0.4,0.5,0.6,1,0.6,1.8c0,0.9-0.3,1.7-1,2.2c-0.7,0.6-1.6,0.9-2.8,0.9c-1.2,0-2.1-0.3-2.7-0.9
				c-0.7-0.6-1-1.3-1.1-2.3h-3.7c0,1.2,0.3,2.3,1,3.2c0.7,0.9,1.5,1.6,2.7,2.1c1.1,0.5,2.4,0.8,3.9,0.8c1.5,0,2.8-0.3,3.9-0.9
				c1.1-0.6,2-1.4,2.6-2.3c0.6-1,0.9-2,0.9-3.1C266.8,107.6,266.5,106.5,265.9,105.7z"/>
			<path class="st0" d="M286,112.2V93.7h-3.5V115h10.7v-2.8H286z"/>
			<path class="st0" d="M326.8,98.7c-1-1.7-2.3-3-3.9-3.9c-1.7-0.9-3.5-1.4-5.5-1.4c-2,0-3.8,0.5-5.5,1.4c-1.7,0.9-3,2.2-4,3.9
				c-1,1.7-1.4,3.5-1.4,5.6c0,1.5,0.3,2.9,0.8,4.2c0.2,0.5,0.4,0.9,0.7,1.4c1,1.7,2.3,3,4,3.9c1.7,0.9,3.5,1.4,5.5,1.4
				c2,0,3.8-0.5,5.5-1.4c1.7-0.9,3-2.2,3.9-3.9c0.3-0.5,0.5-0.9,0.7-1.4c0.5-1.3,0.8-2.7,0.8-4.2
				C328.3,102.2,327.8,100.3,326.8,98.7z M321.2,111.2c-1.1,0.7-2.4,1-3.8,1c-1.4,0-2.7-0.3-3.8-1c-1.1-0.6-1.9-1.5-2.6-2.7
				c0,0,0,0,0-0.1c-0.6-1.2-0.9-2.6-0.9-4.2c0-1.6,0.3-3,0.9-4.1c0.6-1.2,1.5-2.1,2.6-2.7c1.1-0.6,2.4-0.9,3.8-0.9
				c1.4,0,2.7,0.3,3.8,0.9c1.1,0.6,2,1.5,2.6,2.7c0.6,1.2,0.9,2.6,0.9,4.1c0,1.6-0.3,3-0.9,4.2c0,0,0,0,0,0.1
				C323.1,109.7,322.2,110.6,321.2,111.2z"/>
			<path class="st0" d="M357.9,93.7l-5.3,14.8l-1,2.9l-1-2.9l-5.3-14.8h-3.7l5.6,14.8l2.4,6.5h4l2.4-6.5l5.6-14.8H357.9z"/>
			<path class="st0" d="M391.8,108.5l-5.3-14.9h-4l-5.3,14.9l-2.3,6.5h3.7l1.5-4.4h8.9l1.5,4.4h3.7L391.8,108.5z M384.5,97.9
				l3.5,9.9h-7L384.5,97.9z"/>
			<path class="st0" d="M419.6,108.5l-3.7-4.2l9.3-10.7h-4.4l-8.3,9.7v-9.7H409V115h3.5v-9.5l2.6,3.1l5.6,6.5h4.6L419.6,108.5z"/>
			<path class="st0" d="M440,93.7V115h3.5V93.7H440z"/>
			<path class="st0" d="M475.3,108.5L470,93.6H466l-5.3,14.9l-2.3,6.5h3.7l1.5-4.4h8.9l1.5,4.4h3.7L475.3,108.5z M468,97.9l3.5,9.9
				h-7L468,97.9z"/>
		</g>
	</g>
</g>
</svg>
