<?xml version="1.0" encoding="utf-8"?>
<!-- Generator: Adobe Illustrator 26.5.0, SVG Export Plug-In . SVG Version: 6.00 Build 0)  -->
<svg version="1.1" id="Layer_1" xmlns="http://www.w3.org/2000/svg" xmlns:xlink="http://www.w3.org/1999/xlink" x="0px" y="0px"
	 viewBox="0 0 800 179" style="enable-background:new 0 0 800 179;" xml:space="preserve">
<style type="text/css">
	.st0{fill:#0F2A4B;}
	.st1{fill:#ED233E;}
	.st2{fill:#F4CB16;}
	.st3{fill:#00B2D6;}
	.st4{fill:#102F50;}
</style>
<g>
	<g>
		<path class="st0" d="M273.61,170.54H9.52l55.93-53.91L65.43,7.25h208.19V170.54z M44.97,156.24h214.35V21.55H79.73l0.02,101.16
			L44.97,156.24z"/>
	</g>
	
		<rect x="99.94" y="78.42" transform="matrix(-1 -1.224647e-16 1.224647e-16 -1 270.3535 163.9799)" class="st1" width="70.48" height="7.15"/>
	
		<rect x="99.5" y="59.14" transform="matrix(-1 -1.224647e-16 1.224647e-16 -1 329.0722 125.4363)" class="st2" width="130.08" height="7.15"/>
	
		<rect x="99.5" y="96.23" transform="matrix(-1 -1.224647e-16 1.224647e-16 -1 244.9342 199.6027)" class="st2" width="45.94" height="7.15"/>
	
		<rect x="99.47" y="39.87" transform="matrix(-1 -1.224647e-16 1.224647e-16 -1 310.9189 86.8927)" class="st1" width="111.98" height="7.15"/>
	
		<rect x="223.59" y="39.87" transform="matrix(-1 -1.224647e-16 1.224647e-16 -1 468.435 86.8927)" class="st2" width="21.26" height="7.15"/>
	
		<rect x="155.47" y="96.23" transform="matrix(-1 -1.224647e-16 1.224647e-16 -1 361.7598 199.6027)" class="st3" width="50.82" height="7.15"/>
	
		<rect x="178.51" y="78.42" transform="matrix(-1 -1.224647e-16 1.224647e-16 -1 381.675 163.9854)" class="st3" width="24.66" height="7.15"/>
	<g>
		<path class="st4" d="M379.71,34.38c-1.85-3.26-4.61-5.83-8.28-7.68c-3.69-1.85-8.14-2.78-13.39-2.78h-27.13v65.3h18.14V67.16h8.99
			c5.31,0,9.8-0.96,13.47-2.91c3.69-1.95,6.43-4.53,8.26-7.78c1.81-3.24,2.72-6.83,2.72-10.79
			C382.49,41.42,381.56,37.66,379.71,34.38z M356.29,52.73h-7.24V38.54h7.24c5.11,0,7.68,2.39,7.68,7.14
			C363.97,50.37,361.4,52.73,356.29,52.73z"/>
	</g>
	<g>
		<path class="st4" d="M428.44,63.75c4.69-1.43,8.26-3.82,10.69-7.18c2.45-3.38,3.67-7.28,3.67-11.71c0-3.96-0.93-7.53-2.78-10.71
			c-1.85-3.16-4.59-5.67-8.24-7.51c-3.65-1.81-8.09-2.72-13.33-2.72H389.8v65.3h18.16V65.14h1.95l12.97,24.08h20.28L428.44,63.75z
			 M422.51,50.95c-1.24,1.18-3.09,1.78-5.56,1.78h-8.99V39.1h8.99c2.41,0,4.24,0.6,5.5,1.81c1.27,1.2,1.91,2.86,1.91,4.94
			C424.37,48.1,423.75,49.79,422.51,50.95z"/>
	</g>
	<g>
		<path class="st4" d="M511.34,39.07c-2.97-5.09-7-9.07-12.08-11.91c-5.09-2.84-10.75-4.26-16.9-4.26c-6.12,0-11.73,1.43-16.87,4.26
			c-5.13,2.84-9.19,6.81-12.18,11.91c-3.01,5.09-4.5,10.84-4.5,17.27c0,6.43,1.49,12.18,4.5,17.27c2.99,5.09,7.04,9.07,12.18,11.94
			c1.91,1.06,3.88,1.93,5.92,2.6c3.45,1.14,7.1,1.7,10.94,1.7c3.84,0,7.47-0.56,10.92-1.7c2.05-0.68,4.01-1.54,5.92-2.6
			c5.13-2.88,9.17-6.85,12.14-11.94c2.95-5.09,4.44-10.84,4.44-17.27C515.78,49.91,514.29,44.16,511.34,39.07z M493.31,68.47
			c-2.68,3.03-6.35,4.53-10.96,4.53c-4.71,0-8.37-1.51-11.04-4.5c-2.64-2.99-3.98-7.06-3.98-12.18c0-5.19,1.33-9.28,3.98-12.27
			c2.66-2.99,6.33-4.5,11.04-4.5c4.61,0,8.28,1.51,10.96,4.5c2.7,2.99,4.03,7.08,4.03,12.27C497.35,61.39,496.02,65.44,493.31,68.47
			z"/>
	</g>
	<g>
		<path class="st4" d="M726.71,37.41V22.86h-41.78v65.3h41.78V73.63h-23.62V61.86h20.84v-13.8h-20.84V37.41H726.71z"/>
	</g>
	<g>
		<path class="st4" d="M790.62,60.33c-2.26-2.93-5.31-4.82-9.13-5.69c3.34-0.93,6-2.66,8.01-5.23c2.01-2.57,3.01-5.77,3.01-9.59
			c0-5.38-1.89-9.55-5.69-12.5c-3.8-2.97-9.03-4.46-15.71-4.46h-31.3v65.3h32.32c6.93,0,12.29-1.56,16.11-4.71
			c3.84-3.16,5.75-7.51,5.75-13.06C794,66.62,792.88,63.26,790.62,60.33z M757.97,37.31h9.17c4.57,0,6.85,1.95,6.85,5.85
			c0,3.76-2.28,5.63-6.85,5.63h-9.17V37.31z M768.53,73.53h-10.56V61.68h10.46c2.22,0,3.94,0.52,5.15,1.56
			c1.2,1.06,1.79,2.57,1.79,4.55C775.38,71.62,773.1,73.53,768.53,73.53z"/>
	</g>
	<g>
		<polygon class="st1" points="597.61,22.62 558.33,88.16 558.29,88.23 558.25,88.16 518.96,22.62 540.11,22.62 558.29,52.96 
			576.46,22.62 		"/>
	</g>
	<g>
		<g>
			<polygon class="st2" points="676.35,22.62 637.08,88.16 637.04,88.23 637,88.16 597.71,22.62 618.86,22.62 637.04,52.96 
				655.22,22.62 			"/>
		</g>
	</g>
	<g>
		<g>
			<path class="st4" d="M349.36,126.59c-0.81-1.08-1.81-1.87-2.99-2.37c-1.18-0.52-2.7-1.02-4.55-1.54
				c-1.41-0.39-2.51-0.73-3.34-1.06c-0.81-0.31-1.47-0.75-1.99-1.31c-0.54-0.56-0.79-1.25-0.79-2.12c0-1.27,0.41-2.24,1.25-2.91
				c0.83-0.68,1.91-1.02,3.24-1.02c1.45,0,2.62,0.37,3.51,1.1c0.91,0.73,1.39,1.6,1.47,2.62h5.11c-0.19-2.37-1.16-4.25-2.91-5.6
				c-1.74-1.37-3.98-2.06-6.7-2.06c-1.91,0-3.61,0.33-5.08,0.98c-1.45,0.64-2.59,1.58-3.4,2.8c-0.81,1.22-1.22,2.62-1.22,4.25
				c0,1.76,0.41,3.16,1.22,4.23c0.81,1.04,1.79,1.83,2.93,2.32c1.16,0.5,2.64,1,4.48,1.49c1.47,0.39,2.61,0.73,3.43,1.06
				c0.81,0.31,1.51,0.77,2.07,1.37c0.56,0.6,0.83,1.37,0.83,2.32c0,1.22-0.44,2.2-1.33,2.97c-0.91,0.77-2.14,1.16-3.74,1.16
				c-1.52,0-2.72-0.39-3.57-1.18c-0.87-0.79-1.33-1.78-1.45-2.99h-4.94c0,1.62,0.42,3.03,1.29,4.25c0.87,1.22,2.05,2.16,3.57,2.82
				c1.5,0.66,3.2,1,5.09,1c2.01,0,3.74-0.39,5.21-1.16c1.49-0.77,2.61-1.79,3.38-3.07c0.75-1.27,1.14-2.62,1.14-4.05
				C350.59,129.08,350.19,127.66,349.36,126.59z"/>
			<path class="st4" d="M375.93,135.12v-24.45h-4.61v28.17h14.13v-3.72H375.93z"/>
			<path class="st4" d="M429.87,117.29c-1.27-2.2-3.01-3.9-5.21-5.13c-2.2-1.24-4.63-1.85-7.27-1.85c-2.63,0-5.04,0.62-7.24,1.85
				c-2.2,1.23-3.94,2.93-5.23,5.13c-1.27,2.18-1.91,4.65-1.91,7.41c0,2.01,0.35,3.86,1.02,5.58c0.25,0.64,0.54,1.25,0.89,1.85
				c1.29,2.2,3.03,3.92,5.23,5.15c2.2,1.24,4.61,1.85,7.24,1.85c2.64,0,5.07-0.62,7.27-1.85c2.2-1.24,3.94-2.95,5.21-5.15
				c0.35-0.6,0.64-1.22,0.89-1.85c0.68-1.72,1.02-3.57,1.02-5.58C431.78,121.94,431.14,119.47,429.87,117.29z M422.38,133.83
				c-1.47,0.87-3.13,1.29-5,1.29c-1.85,0-3.51-0.42-4.98-1.29c-1.45-0.83-2.57-2.03-3.4-3.55c0-0.02-0.02-0.06-0.04-0.08
				c-0.81-1.58-1.23-3.42-1.23-5.5c0-2.08,0.42-3.9,1.23-5.48c0.83-1.56,1.97-2.76,3.44-3.59c1.47-0.85,3.13-1.25,4.98-1.25
				c1.87,0,3.53,0.41,5,1.25c1.45,0.83,2.59,2.03,3.42,3.59c0.83,1.58,1.24,3.4,1.24,5.48c0,2.08-0.41,3.92-1.24,5.5
				c-0.02,0.02-0.04,0.06-0.04,0.08C424.93,131.8,423.81,133,422.38,133.83z"/>
			<path class="st4" d="M470.95,110.67l-7,19.61l-1.37,3.82l-1.37-3.82l-6.99-19.61h-4.94l7.39,19.61l3.22,8.57h5.35l3.22-8.57
				l7.35-19.61H470.95z"/>
			<path class="st4" d="M515.7,130.28l-7.02-19.64h-5.35l-7.02,19.64l-3.07,8.57h4.82l2.03-5.75h11.79l2.03,5.75h4.86L515.7,130.28z
				 M506.01,116.23l4.57,13.08h-9.2L506.01,116.23z"/>
			<path class="st4" d="M552.36,130.28l-4.86-5.5l12.23-14.11h-5.79L543,123.53v-12.85h-4.61v28.17H543v-12.6l3.49,4.03l7.41,8.57
				h6.04L552.36,130.28z"/>
			<path class="st4" d="M579.28,110.67v28.17h4.61v-28.17H579.28z"/>
			<path class="st4" d="M626.02,130.28L619,110.64h-5.36l-7.02,19.64l-3.07,8.57h4.82l2.03-5.75h11.81l2.01,5.75h4.88L626.02,130.28
				z M616.31,116.23l4.57,13.08h-9.19L616.31,116.23z"/>
		</g>
	</g>
</g>
</svg>
